<svg width="233" height="36" viewBox="0 0 233 36" fill="none" xmlns="http://www.w3.org/2000/svg">
<path d="M2.8519 21.5461V9.73112H0.679024V8.44098H11.6453V9.73112H10.1514V23.04C10.1514 25.8919 9.60819 27.8498 8.52176 28.9136C7.45795 29.9774 5.9641 30.5093 4.04019 30.5093C2.59161 30.5093 1.24488 30.3395 -4.136e-07 30L0.780878 24.2283H5.09268V22.4289C5.09268 22.1573 5.0361 21.9536 4.92293 21.8178C4.76449 21.6367 4.48156 21.5461 4.07415 21.5461H2.8519ZM21.7487 30H12.9553V28.7099H14.4492V9.73112H12.9553V8.44098H21.7487V18.4905H26.8414V8.44098H35.6347V9.73112H34.1409V28.7099H35.6347V30H26.8414V20.3579H21.7487V30ZM57.0083 17.3022V21.1048C57.0083 22.9381 56.7933 24.5904 56.3633 26.0617C56.0917 26.9897 55.4692 27.9403 54.4959 28.9136C54.0659 29.3436 53.1605 29.7623 51.7799 30.1698C50.716 30.4866 48.4639 30.5885 45.0236 30.4753C43.5297 30.43 42.5678 30.3395 42.1377 30.2037C41.7303 30.0679 41.2663 29.8981 40.7457 29.6944C40.2478 29.4681 39.8517 29.2078 39.5574 28.9136C39.2858 28.5967 38.9802 28.2006 38.6407 27.7253C38.3239 27.25 38.0862 26.6954 37.9278 26.0617C37.5203 24.6131 37.3166 22.9608 37.3166 21.1048V17.3022C37.3166 15.4915 37.5203 13.975 37.9278 12.7528C38.3352 11.5079 38.7992 10.5799 39.3198 9.96878C39.8403 9.33502 40.6439 8.85971 41.7303 8.54283C42.8167 8.22595 43.7221 8.04488 44.4464 7.99961C45.1707 7.95434 46.0647 7.93171 47.1285 7.93171C48.215 7.93171 48.9393 7.94302 49.3014 7.96566C49.6636 7.96566 50.1615 7.98829 50.7953 8.03356C51.4517 8.07883 51.9496 8.15805 52.2891 8.27122C52.6286 8.38439 53.0474 8.55415 53.5453 8.78049C54.0659 8.9842 54.462 9.24449 54.7336 9.56137C55.0279 9.85561 55.3334 10.2404 55.6503 10.7157C55.9898 11.191 56.2388 11.7342 56.3972 12.3454C56.8046 13.7713 57.0083 15.4236 57.0083 17.3022ZM49.7088 28.0648V10.3422H44.6161V28.0648H49.7088ZM58.7099 9.73112V8.44098H71.7811L76.5682 27.9629H77.9602L75.2102 8.44098H81.6949V9.73112H80.201V30H68.6236L64.2439 10.478H62.8519L65.1946 30H58.7099V28.7099H60.2037V9.73112H58.7099ZM101.847 8.44098V15.5028H97.8747L97.026 10.8176H95.0907L95.8377 16.5214V28.7099H98.6896V30H85.6862V28.7099H88.5381V16.5214L89.2851 10.8176H87.3499L86.5011 15.7065H82.5288V8.44098H101.847ZM111.832 30H103.039V28.7099H104.533V9.73112H103.039V8.44098H114.99C117.253 8.44098 118.668 8.49756 119.233 8.61073C119.799 8.7239 120.331 8.85971 120.829 9.01815C121.327 9.15395 121.712 9.33502 121.984 9.56137C122.278 9.76507 122.583 10.0254 122.9 10.3422C123.217 10.6591 123.455 11.0326 123.613 11.4626C124.021 12.4359 124.224 13.5563 124.224 14.8238C124.224 16.8835 123.794 18.3774 122.934 19.3054C122.074 20.2334 120.841 20.8219 119.233 21.0708V21.8517H120.761C121.531 21.8517 122.063 21.9988 122.357 22.2931C122.651 22.5647 122.844 23.0966 122.934 23.8888L123.511 28.7099H125.311V30H116.925V22.8702H111.832V30ZM116.925 20.4258V10.8176H111.832V20.4258H116.925ZM126.356 9.73112V8.44098H141.702L144.825 28.7099H146.251V30H124.115V28.7099H125.507L128.461 9.73112H126.356ZM131.618 10.478V23.04H135.76L134.64 10.478H131.618ZM131.618 30H136.405L135.93 24.9073H131.618V30ZM161.005 19.0677V19.8486H162.533C163.303 19.8486 163.812 19.9731 164.061 20.222C164.332 20.471 164.547 20.9916 164.706 21.7838L166.064 28.7099H167.999V30H159.613L157.576 20.3579H155.2V30H146.406V28.7099H147.9V9.73112H146.406V8.44098H155.2V18.4905H157.678L159.613 8.44098H167.66V9.73112H165.894L163.721 16.9288C163.359 18.1963 162.454 18.9093 161.005 19.0677ZM187.653 8.44098V15.5028H183.681L182.832 10.8176H180.897L181.644 16.5214V28.7099H184.496V30H171.493V28.7099H174.345V16.5214L175.091 10.8176H173.156L172.307 15.7065H168.335V8.44098H187.653ZM208.197 17.3022V21.1048C208.197 22.9381 207.982 24.5904 207.552 26.0617C207.281 26.9897 206.658 27.9403 205.685 28.9136C205.255 29.3436 204.35 29.7623 202.969 30.1698C201.905 30.4866 199.653 30.5885 196.213 30.4753C194.719 30.43 193.757 30.3395 193.327 30.2037C192.919 30.0679 192.455 29.8981 191.935 29.6944C191.437 29.4681 191.041 29.2078 190.746 28.9136C190.475 28.5967 190.169 28.2006 189.83 27.7253C189.513 27.25 189.275 26.6954 189.117 26.0617C188.709 24.6131 188.506 22.9608 188.506 21.1048V17.3022C188.506 15.4915 188.709 13.975 189.117 12.7528C189.524 11.5079 189.988 10.5799 190.509 9.96878C191.029 9.33502 191.833 8.85971 192.919 8.54283C194.006 8.22595 194.911 8.04488 195.635 7.99961C196.36 7.95434 197.254 7.93171 198.318 7.93171C199.404 7.93171 200.128 7.94302 200.49 7.96566C200.853 7.96566 201.351 7.98829 201.984 8.03356C202.641 8.07883 203.139 8.15805 203.478 8.27122C203.818 8.38439 204.236 8.55415 204.734 8.78049C205.255 8.9842 205.651 9.24449 205.923 9.56137C206.217 9.85561 206.522 10.2404 206.839 10.7157C207.179 11.191 207.428 11.7342 207.586 12.3454C207.994 13.7713 208.197 15.4236 208.197 17.3022ZM200.898 28.0648V10.3422H195.805V28.0648H200.898ZM218.692 30H209.899V28.7099H211.393V9.73112H209.899V8.44098H221.85C224.113 8.44098 225.528 8.49756 226.094 8.61073C226.659 8.7239 227.191 8.85971 227.689 9.01815C228.187 9.15395 228.572 9.33502 228.844 9.56137C229.138 9.76507 229.443 10.0254 229.76 10.3422C230.077 10.6591 230.315 11.0326 230.473 11.4626C230.881 12.4359 231.084 13.5563 231.084 14.8238C231.084 16.8835 230.654 18.3774 229.794 19.3054C228.934 20.2334 227.701 20.8219 226.094 21.0708V21.8517H227.621C228.391 21.8517 228.923 21.9988 229.217 22.2931C229.511 22.5647 229.704 23.0966 229.794 23.8888L230.371 28.7099H232.171V30H223.785V22.8702H218.692V30ZM223.785 20.4258V10.8176H218.692V20.4258H223.785Z" fill="white"/>
</svg>
